<?xml version="1.0" encoding="utf-8"?>
<svg baseProfile="full" height="1024px" version="1.1" width="1024px" xmlns="http://www.w3.org/2000/svg" xmlns:bx="https://boxy-svg.com">
  <defs>
    <bx:export>
      <bx:file format="png"/>
    </bx:export>
  </defs>
  <rect height="1024px" rx="200px" ry="200px" width="1024px" x="0" y="0" style="fill: lch(64 59.6 139);"/>
  <ellipse cx="552px" cy="552px" fill-opacity="0.25" rx="420px" ry="280px" transform="rotate(-20, 552, 552)" fill="#000000"/>
  <ellipse cx="512px" cy="512px" rx="420px" ry="280px" transform="rotate(-20, 512, 512)" style="paint-order: fill; fill: rgb(211, 47, 47);"/>
  <line stroke="#FFFFFF" stroke-linecap="round" stroke-width="30px" x1="432" x2="432" y1="412" y2="612" transform="rotate(-20, 512, 512)"/>
  <line stroke="#FFFFFF" stroke-linecap="round" stroke-width="30px" x1="452.738" x2="521.142" y1="427.151" y2="615.09" style="transform-origin: 486.941px 525.681px;"/>
  <line stroke="#FFFFFF" stroke-linecap="round" stroke-width="30px" x1="378.237" x2="642.444" y1="413.029" y2="608.086" transform="rotate(-20, 512, 512)"/>
  <line stroke="#FFFFFF" stroke-linecap="round" stroke-width="30px" x1="537.06" x2="537.059" y1="402.88" y2="602.879" style="transform-box: fill-box; transform-origin: 50% 50%;" transform="matrix(0.939693, -0.34202, 0.34202, 0.939693, 0.000011, -0.000002)"/>
  <line stroke="#FFFFFF" stroke-linecap="round" stroke-width="30px" x1="592" x2="592" y1="412" y2="612" transform="rotate(-20, 512, 512)"/>
  <line stroke="#6D4C41" stroke-width="20px" transform="rotate(-20, 512, 512)" x1="122" x2="282" y1="512" y2="512"/>
  <line stroke="#6D4C41" stroke-width="20px" transform="rotate(-20, 512, 512)" x1="742" x2="902" y1="512" y2="512"/>
</svg>